<svg width="414" height="169" viewBox="0 0 414 169" fill="none" xmlns="http://www.w3.org/2000/svg">
<path fill-rule="evenodd" clip-rule="evenodd" d="M414 168H0V123.418C0 123.418 1.53516 112.134 17.4258 112.134C33.3164 112.134 34.1016 110.224 41.2695 104.619C48.4375 99.0145 61.9121 107.122 73.127 104.619C84.3418 102.117 83.457 87.6637 103.24 89.0949C123.023 90.526 121.455 72.5455 144.588 68.5141C167.721 64.4828 201.133 70.554 213.996 61.2885C226.859 52.0229 234.924 44.229 268.801 44.229C302.678 44.229 302.41 39.7675 328.986 26.5699C355.562 13.3723 365.609 26.932 382.947 33.3653C400.285 39.7986 414 23.3873 414 23.3873V168Z" fill="#697596"/>
<path opacity="0.9" fill-rule="evenodd" clip-rule="evenodd" d="M0 91.032V169H319.492C319.492 169 321.982 20.5878 320.361 13.0455C318.74 5.50319 314.102 21.6747 286.592 15.9291C259.083 10.1834 257.419 27.7827 232.267 32.829C207.116 37.8753 189.057 37.8753 175.399 57.5784C161.741 77.2816 130.334 77.2679 100.541 77.2679C70.7476 77.2679 63.9841 105.215 37.3389 105.215C10.6937 105.215 0 91.032 0 91.032Z" fill="url(#paint0_linear_1_473)"/>
<path d="M320.5 166V13" stroke="#F5EAF8" stroke-width="2" stroke-linecap="square"/>
<circle cx="320.5" cy="6.5" r="6.5" fill="#7165E3"/>
<defs>
<linearGradient id="paint0_linear_1_473" x1="321" y1="59.8889" x2="0" y2="59.8889" gradientUnits="userSpaceOnUse">
<stop stop-color="#5E52D2"/>
<stop offset="1" stop-color="#B697F9"/>
</linearGradient>
</defs>
</svg>
