<svg width="340" height="155" viewBox="0 0 340 155" fill="none" xmlns="http://www.w3.org/2000/svg">
<path d="M0 10C0 4.47715 4.47715 0 10 0H330C335.523 0 340 4.47715 340 10V155H0V10Z" fill="#7165E3"/>
<mask id="mask0_1_527" style="mask-type:luminance" maskUnits="userSpaceOnUse" x="0" y="0" width="340" height="155">
<path d="M0 10C0 4.47715 4.47715 0 10 0H330C335.523 0 340 4.47715 340 10V155H0V10Z" fill="white"/>
</mask>
<g mask="url(#mask0_1_527)">
<mask id="mask1_1_527" style="mask-type:luminance" maskUnits="userSpaceOnUse" x="-234" y="-174" width="469" height="518">
<path fill-rule="evenodd" clip-rule="evenodd" d="M-234 -174H235V344H-234V-174Z" fill="white"/>
</mask>
<g mask="url(#mask1_1_527)">
<path fill-rule="evenodd" clip-rule="evenodd" d="M-75.3929 265.228C-73.4326 263.517 -61.3322 267.27 -59.258 262.38C-65.0131 262.34 -76.2342 261.831 -75.3929 265.228ZM-42.1707 188.35C-49.3895 192.845 -59.258 199.733 -62.1034 205.435C-55.1359 200.063 -46.8858 195.974 -42.1707 188.35ZM83.1281 138.047C87.557 139.627 87.5102 145.691 89.7685 149.436C85.0971 148.259 78.1909 142.977 83.1281 138.047ZM20.4758 183.606C23.3797 182.692 29.351 183.282 29.0209 188.353C25.5503 190.646 21.0279 187.246 20.4758 183.606ZM170.452 -33.7364V-37.5338C165.161 -39.2455 165.999 -38.5678 160.96 -35.638C157.405 -38.3107 154.857 -36.269 151.468 -38.486C149.867 -34.3878 147.168 -31.3967 140.081 -32.7871C136.771 -24.9266 127.691 -19.1546 127.738 -9.05952C127.764 -3.74908 133.297 1.5117 129.64 6.12401C113.926 -10.3886 76.7273 7.03246 57.4958 1.38025C59.9322 -5.99243 63.5635 -12.1704 66.0379 -19.5022C69.5641 -20.4399 73.7913 -24.5498 70.7852 -28.9927C58.0392 -24.6549 58.3634 -7.24263 45.1587 -3.36351C40.0199 -9.11502 34.2706 -10.7391 28.0685 -16.6513C27.3791 -30.5875 20.7299 -37.4228 15.7285 -46.0749C13.6631 -49.6502 14.446 -54.6802 9.08817 -54.6189C8.55356 -53.2489 7.6041 -52.2996 6.23979 -51.7709C5.49193 -46.2823 8.88367 -44.9211 8.1387 -39.4295C-1.63045 -34.1074 -18.1217 -40.89 -28.8813 -46.0749C-30.0352 -40.1744 -26.7311 -38.7372 -26.9853 -33.7364C-36.8947 -28.7005 -43.1377 -35.9973 -52.6118 -31.8377C-57.8382 -35.1502 -59.8218 -41.7167 -66.8507 -43.2298C-73.1785 -48.6045 -74.0782 -59.4094 -82.0361 -63.1571C-82.2698 -56.6724 -79.106 -55.9509 -76.3394 -51.7709C-73.1901 -47.0096 -70.1548 -38.7577 -66.8507 -34.6828C-62.5358 -29.3695 -56.9968 -27.573 -57.3562 -22.3473C-57.8469 -15.1762 -66.2168 -14.7993 -72.5445 -10.9553C-78.472 15.3253 -108.466 7.23109 -129.5 0.433838C-117.221 6.82214 -101.171 9.43939 -90.5783 17.516C-97.6072 23.139 -104.212 29.1943 -108.612 37.4463C-114.195 37.0139 -115.609 32.4133 -122.854 33.6518C-123.687 38.9097 -117.733 37.3878 -116.211 40.2943C-130.937 43.6856 -136.967 30.8301 -153.228 33.6518C-153.456 32.2965 -154.794 32.0482 -155.127 30.8009C-155.752 27.3307 -153.076 27.1613 -153.228 24.1614C-157.42 21.0096 -160.701 16.5054 -159.868 10.8736C-166.593 7.78317 -172.307 3.6908 -173.163 -5.26509C-177.811 -6.11511 -175.725 -0.232162 -180.753 -1.46776C-183.312 -9.36038 -188.013 -4.06454 -194.992 -7.16377C-196.105 -5.74414 -196.175 -3.27879 -197.837 -2.41417C-208.092 -4.75099 -208.144 3.09782 -213.978 5.1776C-220.426 2.76775 -223.482 -2.44046 -231.063 0.433838C-230.8 5.54565 -222.123 2.25073 -220.624 6.12401C-224.092 14.9923 -226.596 24.8332 -231.063 32.6996C-227.127 35.1912 -224.828 40.7762 -227.265 46.9367C-221.381 52.3552 -215.418 58.6705 -213.026 64.9682C-209.558 65.5963 -209.386 62.9148 -206.386 63.0696C-203.406 65.161 -200.493 67.308 -199.736 71.6165C-190.493 66.642 -180.201 67.124 -170.315 64.9682C-168.735 63.7034 -169.997 59.5935 -168.416 58.3229C-165.486 58.0921 -163.049 57.3648 -160.82 56.4271C-158.396 55.2178 -161.703 51.7798 -159.868 51.6834C-146.859 53.4448 -126.403 51.5373 -116.211 60.2216C-113.24 70.4335 -111.078 80.5578 -116.211 90.5945C-117.858 91.7716 -122.512 89.8701 -126.652 90.5945C-129.077 89.8554 -128.261 85.877 -131.396 85.8507C-147.993 88.8711 -159.424 97.0587 -164.621 111.477C-163.631 116.498 -162.763 121.648 -162.719 127.61C-158.194 137.001 -148.063 140.792 -141.837 148.489C-139.909 144.648 -132.757 145.262 -129.5 147.54C-118.822 142.081 -108.346 136.42 -104.817 123.815C-90.5958 123.83 -90.1342 137.603 -81.0867 142.793C-83.6721 156.975 -88.0133 169.404 -91.5278 182.657C-84.5368 177.045 -81.9251 165.426 -80.1402 152.284C-76.1963 151.168 -73.491 148.811 -69.6991 147.54C-67.3006 149.891 -63.2778 150.61 -63.05 155.135C-62.9711 158.695 -66.5293 158.614 -66.8507 161.774C-55.8166 160.559 -38.0691 159.525 -39.3194 176.964C-33.8768 178.611 -35.7436 172.947 -31.7296 173.163C-22.7171 179.733 -20.7306 206.729 -26.0329 215.875C-31.718 208.803 -30.9555 197.604 -42.1707 198.792C-53.2866 199.973 -55.3842 215.986 -47.8645 225.365C-38.1538 228.59 -29.4948 234.777 -24.134 223.469C-14.0961 232.308 -20.4267 253.781 -29.8307 259.532C-33.7162 260.394 -37.5111 261.346 -38.37 265.228C-37.6309 265.439 -37.2686 266.02 -37.4264 267.124C-34.0171 269.099 -27.1576 267.621 -22.2409 268.076C-19.6496 272.765 -15.9336 276.328 -15.5918 283.26C-18.2415 286.327 -26.2929 288.985 -24.134 293.7C-21.6391 288.86 -11.3032 287.452 -6.1002 290.852C-5.72626 294.278 -4.87029 297.22 -4.20129 300.342C2.64355 302.889 8.06567 309.024 16.6838 306.988C19.1349 309.914 17.9663 316.461 21.4281 318.38C26.9204 318.812 25.2406 312.07 30.9198 312.684C33.1371 315.529 29.9586 323.772 35.6671 323.123C39.4941 321.891 37.7705 315.108 40.4143 312.684C48.3459 310.595 52.9705 312.85 60.3441 312.684C61.4572 314.1 61.5215 316.566 63.1925 317.43C63.7592 315.739 60.4084 313.487 63.1925 312.684C67.1714 312.818 67.4285 316.674 72.6841 315.532C72.5965 311.471 70.7823 308.58 72.6841 305.089C90.9136 304.02 92.6694 286.473 102.111 276.615C113.727 274.503 121.477 281.288 128.687 280.418C125.322 278.402 119.923 278.423 118.246 274.722C120.245 272.192 125.19 271.147 122.991 267.124C116.946 266.777 115.068 270.594 111.603 272.82C108.585 270.778 102.526 271.775 101.165 268.076C100.075 260.975 104.355 259.249 106.859 255.735C106.117 251.102 102.912 248.923 103.058 243.402C103.712 239.62 109.996 241.478 109.704 236.754C109.453 232.896 103.502 234.73 101.165 232.96C99.9612 226.017 101.656 225.301 102.111 218.723C95.696 216.909 89.9993 214.382 90.7179 205.438C83.2654 204.351 76.739 202.333 77.4343 193.099C75.7107 190.707 71.1971 191.107 69.8387 188.353C70.9313 188.046 73.1048 184.214 70.7852 183.606C68.6701 189.358 57.7324 185.102 54.6503 182.657C50.9402 183.378 50.9577 187.824 46.1052 187.4C45.6962 185.598 44.0632 185.02 44.2063 182.657C50.7999 178.176 63.8001 180.101 70.7852 176.014C70.7209 165.84 65.9269 155.786 71.7347 145.644C72.687 145.647 72.8623 144.876 73.6336 144.695C75.1673 146.322 77.6038 147.049 81.2263 146.594C89.5318 158.4 104.098 158.666 115.401 166.521C109.324 155.479 83.4232 156.122 86.9259 132.357C80.718 130.899 82.0121 140.927 77.4343 138.047C79.5669 130.373 87.8842 128.889 91.6703 122.866C114.603 116.221 129.502 137.132 151.468 129.508C157.875 103.301 110.505 108.717 108.755 89.6451C107.674 77.8412 118.313 81.475 125.842 78.2589C123.537 70.7256 112.275 76.5618 108.755 71.6165C108.334 63.2828 116.432 63.4727 121.095 60.2216C119.555 50.9677 126.97 50.293 130.589 44.0858C128.29 39.1113 119.502 40.6185 118.246 34.6012C123.414 27.0883 130.838 11.0284 142.926 19.4118C148.36 15.039 152.097 19.5549 156.216 23.2091C159.602 18.9824 163.338 21.1907 168.559 22.2598C174.869 14.0634 190.154 7.80069 184.691 -6.21152C185.009 -10.0089 188.62 -10.5083 188.488 -14.7585C181.544 -20.1478 180.738 -31.6829 170.452 -33.7364ZM75.5325 344C73.6131 335.798 70.6801 328.603 66.0409 323.12C67.8726 331.413 71.1212 338.284 75.5325 344ZM107.805 313.633C108.027 319.028 117.405 319.528 120.145 319.329C118.492 314.971 112.731 314.72 107.805 313.633ZM-220.624 299.396C-224.267 292.277 -233.125 297.856 -233.911 303.193C-234.895 309.865 -227.396 311.623 -227.265 317.43C-214.729 321.523 -215.734 306.152 -210.18 300.342C-210.674 298.943 -211.586 297.953 -212.082 296.548C-216.57 295.858 -218.319 297.903 -220.624 299.396ZM-77.2888 272.82C-70.5988 274.038 -63.5904 274.941 -56.4096 275.668C-59.2667 271.237 -71.7002 271.366 -77.2888 272.82ZM114.451 234.858C119.187 241.746 126.695 237 137.229 238.653C134.551 232.519 121.787 233.404 114.451 234.858ZM-101.019 236.757C-105.086 236.17 -104.893 239.845 -108.618 239.602C-113.076 238.054 -113.447 232.414 -115.258 228.213C-119.129 227.509 -118.53 231.271 -122.854 230.115C-125.682 228.824 -126.795 225.827 -128.548 223.469C-137.251 225.204 -139.185 220.183 -143.739 217.773C-145.401 219.272 -145.702 222.132 -148.483 222.52C-157.557 218.734 -158.624 230.661 -168.416 226.314C-171.548 237.143 -179.915 243.265 -192.147 242.45C-192.483 248.167 -185.734 246.791 -184.551 250.994C-182.9 259.287 -187.569 261.262 -188.352 267.127C-185.185 272.441 -182.848 280.243 -181.706 289.905C-176.795 289.742 -175.927 293.621 -174.11 296.548C-169.053 295.92 -165.801 297.1 -164.621 300.345C-163.581 305.495 -166.535 306.655 -166.517 310.785C-162.027 308.629 -158.51 305.501 -152.275 305.092C-148.089 308.174 -145.317 312.684 -136.143 310.785C-135.626 307.823 -133.882 306.085 -131.396 305.092C-128.504 306.307 -128.857 310.776 -124.753 310.785C-121.601 308.898 -126.307 300.015 -120.006 299.396C-116.024 299.215 -117.072 304.055 -112.413 303.193C-111.373 298.847 -111.373 297.1 -112.413 292.753C-106.173 288.901 -104.791 297.436 -101.019 295.601C-101.04 291.503 -105.752 292.102 -105.767 288.007C-101.44 282.159 -107.178 270.986 -101.019 266.178C-96.8038 264.066 -83.1083 269.076 -77.2888 264.279C-96.3568 269.511 -111.475 252.645 -101.019 236.757ZM224.559 76.3603C227.171 79.7545 234.974 78.2852 235 73.5123C232.841 68.5786 224.427 70.9564 224.559 76.3603ZM-141.837 -1.46776C-147.245 -2.70627 -151.694 -4.89996 -157.023 -6.21443C-156.792 -0.419098 -145.6 -0.576843 -141.837 -1.46776ZM210.32 -104.916C210.527 -108.389 211.626 -108.559 210.32 -111.562C205.056 -111.567 202.339 -116.635 197.031 -118.207C191.918 -119.72 185.406 -117.339 181.845 -122.001C180.136 -118.359 176.102 -117.415 171.404 -119.153C170.127 -111.258 160.408 -111.798 160.96 -102.071C159.309 -102.144 158.012 -101.858 157.165 -101.122C156.455 -98.2007 159.768 -99.2961 159.064 -96.378C158.229 -93.7315 154.355 -94.1229 154.32 -90.682C159.961 -88.7336 160.206 -81.3872 161.909 -75.4984C167.633 -73.3077 169.195 -66.9661 175.199 -65.0557C167.603 -62.2106 161.223 -58.1533 160.96 -47.9706C181.541 -37.7762 182.771 -72.4255 204.626 -66.9544C208.97 -76.9064 219.403 -85.6841 213.165 -98.2737C214.354 -100.57 217.954 -100.45 217.91 -103.973C215.646 -104.545 211.03 -102.775 210.32 -104.916ZM124.892 -141.932C133.744 -139.232 141.512 -145.46 141.977 -154.273C134.34 -155.821 125.623 -151.296 123.94 -143.833C124.679 -143.623 125.044 -143.039 124.892 -141.932ZM-36.4769 -114.41C-32.4483 -113.262 -28.37 -113.054 -30.7802 -107.764C-25.9394 -108.877 -21.2389 -105.696 -17.4907 -103.02C-10.5845 -104.688 -6.45953 -103.342 -1.35292 -101.125C0.770935 -109.122 8.67917 -111.337 14.7791 -115.362C13.1635 -119.936 14.2824 -123.795 18.5798 -124.849C19.871 -134.115 12.9181 -137.819 16.6838 -146.681C7.11914 -148.819 4.21819 -157.626 -3.25475 -161.865C-4.00847 -159.773 -5.15659 -158.076 -7.9991 -158.067C-10.5729 -158.66 -10.3625 -162.034 -13.6958 -161.865C-14.9725 -157.398 -19.9798 -156.172 -25.0835 -158.067C-28.0049 -151.498 -33.018 -147.02 -39.3194 -143.833C-34.3793 -139.364 -39.743 -132.59 -42.1707 -129.596C-40.2572 -123.339 -35.6706 -121.972 -36.4769 -114.41ZM-32.6791 -168.507C-31.0285 -176.353 -44.5896 -175.29 -40.2747 -168.507C-36.0708 -168.96 -35.5537 -167.201 -32.6791 -168.507Z" fill="#191634" fill-opacity="0.177038"/>
</g>
<path fill-rule="evenodd" clip-rule="evenodd" d="M160.35 117.717C160.399 120.635 157.139 124.608 152.514 128.662C152.202 128.935 151.883 129.209 151.558 129.485C146.42 133.829 139.871 138.193 134.296 141.377C128.871 144.472 121.31 147.968 114.158 148.898C107.4 149.773 101.002 148.355 97.1145 142.144C96.6645 141.43 96.2565 140.675 95.8825 139.891C89.5535 126.626 93.2805 104.209 93.2805 104.209L109.338 75.6814C120.724 85.9204 117.803 112.434 121.966 115.491C122.037 115.543 122.109 115.592 122.184 115.637C122.705 115.96 123.322 116.135 124.018 116.191C128.587 116.565 136.635 111.81 144.727 109.682C145.163 109.569 145.6 109.462 146.036 109.362C146.449 109.27 146.859 109.186 147.27 109.11C154.49 107.775 160.246 111.476 160.35 117.717Z" fill="#FEFEFE"/>
<path fill-rule="evenodd" clip-rule="evenodd" d="M152.515 128.662C152.203 128.935 151.884 129.209 151.559 129.485C148.16 126.321 145.97 121.987 145.109 116.622C144.704 114.104 144.645 111.707 144.728 109.683C145.164 109.569 145.601 109.462 146.036 109.362C145.928 111.41 145.964 113.882 146.381 116.456C147.217 121.628 149.272 125.709 152.515 128.662Z" fill="#ABC0FE"/>
<path fill-rule="evenodd" clip-rule="evenodd" d="M124.019 116.191C121.067 118.169 117.022 121.288 115.14 124.585C115.023 124.792 114.806 124.908 114.582 124.908C114.475 124.908 114.367 124.88 114.266 124.824C113.957 124.647 113.851 124.255 114.026 123.948C115.456 121.442 117.975 119.086 120.409 117.198C117.652 117.734 115.034 118.71 115.001 118.722C114.926 118.75 114.849 118.763 114.775 118.763C114.516 118.763 114.27 118.605 114.173 118.348C114.049 118.017 114.218 117.647 114.55 117.521C114.725 117.457 118.709 115.973 122.184 115.637C122.707 115.96 123.323 116.135 124.019 116.191Z" fill="#ABC0FE"/>
<path fill-rule="evenodd" clip-rule="evenodd" d="M114.157 148.897C107.399 149.772 101.003 148.354 97.1132 142.144C96.6652 141.43 96.2562 140.675 95.8822 139.89C98.2182 139.103 102.947 138.358 108.915 141.887C112.782 144.173 113.995 146.752 114.157 148.897Z" fill="#D51247"/>
<path fill-rule="evenodd" clip-rule="evenodd" d="M172.921 96.6441C172.921 96.6441 167.12 116.601 156.589 119.016L151.709 112.884C151.709 112.884 161.856 97.6691 172.921 96.6441Z" fill="#ACC1FF"/>
<path fill-rule="evenodd" clip-rule="evenodd" d="M151.45 117.845L152.26 118.308C152.683 118.55 153.213 118.495 153.576 118.17C156.951 115.154 173.331 100.491 176.123 97.5863C176.383 97.3173 176.488 96.9363 176.411 96.5713L173.864 84.5203C173.803 84.2293 173.629 83.9743 173.381 83.8103L172.26 83.0683L174.87 96.0563L151.45 117.845Z" fill="#121032"/>
<path fill-rule="evenodd" clip-rule="evenodd" d="M151.379 117.669L148.481 105.746C148.366 105.279 148.681 104.523 149.182 104.057L171.38 83.3785C171.881 82.9125 172.378 82.9125 172.491 83.3785L175.391 95.3025C175.504 95.7685 175.191 96.5255 174.69 96.9915L152.491 117.67C151.99 118.136 151.492 118.136 151.379 117.669Z" fill="#121032"/>
<path fill-rule="evenodd" clip-rule="evenodd" d="M155.349 111.978L153.241 103.308C153.127 102.841 153.441 102.084 153.942 101.618L170.403 86.2846C170.904 85.8176 171.401 85.8176 171.515 86.2846L173.622 94.9546C173.736 95.4216 173.422 96.1776 172.921 96.6446L156.46 111.978C155.96 112.445 155.462 112.445 155.349 111.978Z" fill="#2D4A94"/>
<path fill-rule="evenodd" clip-rule="evenodd" d="M152.39 111.016C151.618 111.736 150.849 111.735 150.674 111.015C150.498 110.295 150.983 109.128 151.756 108.408C152.529 107.688 153.297 107.688 153.472 108.409C153.647 109.129 153.162 110.296 152.39 111.016Z" fill="#2D4A94"/>
<path fill-rule="evenodd" clip-rule="evenodd" d="M153.213 100.643C153.213 100.643 151.211 96.0761 154.157 93.8261C157.104 91.5751 163.202 90.9971 163.202 90.9971C165.574 92.8651 161.569 95.0191 156.521 97.2201L153.213 100.643Z" fill="#ACC1FF"/>
<path fill-rule="evenodd" clip-rule="evenodd" d="M163.018 109.69C163.018 109.69 166.104 111.086 167.119 109.339C168.133 107.592 166.298 103.189 165.548 101.688C164.799 100.186 163.999 104 164.371 105.715C164.589 106.728 164.511 108.34 164.511 108.34L163.018 109.69Z" fill="#ACC1FF"/>
<path fill-rule="evenodd" clip-rule="evenodd" d="M167.175 105.366C167.175 105.366 170.425 106.709 171.629 104.636C172.833 102.562 170.654 97.3363 169.765 95.5533C168.876 93.7723 167.783 98.3343 168.366 100.334C168.949 102.334 168.264 103.225 168.264 103.225L167.175 105.366Z" fill="#ACC1FF"/>
<path fill-rule="evenodd" clip-rule="evenodd" d="M169.437 103.224C169.437 103.224 172.308 104.41 173.372 102.578C174.435 100.746 172.511 96.1307 171.725 94.5557C170.94 92.9817 169.975 97.0117 170.49 98.7787C171.004 100.546 170.399 101.332 170.399 101.332L169.437 103.224Z" fill="#ACC1FF"/>
<path fill-rule="evenodd" clip-rule="evenodd" d="M164.931 108.541C164.931 108.541 168.18 109.884 169.384 107.81C170.588 105.737 168.41 100.511 167.521 98.7291C166.631 96.9461 165.539 101.509 166.122 103.509C166.705 105.509 166.02 106.4 166.02 106.4L164.931 108.541Z" fill="#ACC1FF"/>
<path fill-rule="evenodd" clip-rule="evenodd" d="M96.6054 69.8023C96.6054 69.8023 103.157 56.4873 89.2414 49.0993C79.5054 43.9313 60.7104 42.9853 54.9734 54.8163C49.6394 65.8193 61.6374 75.0753 61.6374 75.0753C61.6374 75.0753 87.3334 80.5693 96.6054 69.8023Z" fill="#5C84CD"/>
<path fill-rule="evenodd" clip-rule="evenodd" d="M73.953 54.3892C73.953 54.3892 61.923 56.0282 66.282 62.4422C68.59 65.8372 81.624 67.6902 81.624 67.6902C81.624 67.6902 84.178 55.9312 73.953 54.3892Z" fill="#121032"/>
<path fill-rule="evenodd" clip-rule="evenodd" d="M124.329 175.686C124.329 175.686 79.77 190.65 60.568 183.18C60.568 183.18 54.55 181.307 52.134 169.516C52.055 169.13 51.98 168.735 51.909 168.327C50.891 162.494 50.735 154.423 52.429 143.288C54.46 129.93 51.65 123.107 50.447 109.807C50.404 109.338 50.361 108.862 50.321 108.376C50.192 106.937 50.073 105.424 49.953 103.814C48.66 86.2541 43.071 78.7481 51.819 73.5331C60.568 68.3201 72.043 64.3221 72.043 64.3221C72.043 64.3221 81.808 67.4201 88.685 64.3221C88.685 64.3221 99.153 69.4511 107.201 72.3851C115.247 75.3181 112.603 96.5831 115.14 108.793C117.678 121.006 121.975 130.719 125.857 150.977C129.407 169.503 124.329 175.686 124.329 175.686Z" fill="#FEFEFE"/>
<path fill-rule="evenodd" clip-rule="evenodd" d="M125.374 149.167C125.041 149.167 124.76 148.909 124.734 148.572C124.361 143.463 120.478 130.497 118.156 122.75C117.705 121.244 117.314 119.943 117.034 118.974C115.351 113.169 113.438 99.5266 113.358 98.9486C113.309 98.5976 113.554 98.2736 113.905 98.2256C114.257 98.1766 114.58 98.4206 114.629 98.7716C114.648 98.9126 116.607 112.901 118.266 118.616C118.545 119.58 118.935 120.878 119.385 122.382C121.721 130.179 125.631 143.229 126.014 148.479C126.04 148.832 125.774 149.139 125.421 149.165C125.405 149.166 125.39 149.167 125.374 149.167Z" fill="#ABC0FE"/>
<path fill-rule="evenodd" clip-rule="evenodd" d="M85.165 83.0435C92.586 83.0435 94.909 76.3935 94.933 76.3235C95.019 76.0685 94.882 75.7935 94.627 75.7075C94.372 75.6215 94.098 75.7595 94.012 76.0125C93.922 76.2775 91.72 82.5035 84.42 82.0475C76.835 81.5735 67.09 76.5625 66.992 76.5125C66.753 76.3885 66.46 76.4815 66.337 76.7195C66.214 76.9585 66.307 77.2515 66.545 77.3755C66.95 77.5855 76.567 82.5315 84.359 83.0185C84.634 83.0355 84.903 83.0435 85.165 83.0435Z" fill="#ABC0FE"/>
<path fill-rule="evenodd" clip-rule="evenodd" d="M111.849 140.689C111.849 140.689 116.996 156.444 115.11 165.193C115.11 165.193 98.1705 175.289 72.9205 170.216C72.9205 170.216 71.5075 154.638 70.5145 144.624C70.5145 144.624 96.2965 140.444 111.849 140.689Z" fill="#5C84CD"/>
<path fill-rule="evenodd" clip-rule="evenodd" d="M82.2646 152.8C82.4576 152.8 82.6186 152.648 82.6276 152.452C84.1826 118.802 74.7706 68.3279 74.6756 67.8219C74.6376 67.6239 74.4466 67.4949 74.2496 67.5309C74.0516 67.5689 73.9216 67.7589 73.9586 67.9569C74.0536 68.4619 83.4506 118.854 81.9006 152.419C81.8906 152.62 82.0456 152.79 82.2466 152.8C82.2526 152.8 82.2586 152.8 82.2646 152.8Z" fill="white"/>
<path fill-rule="evenodd" clip-rule="evenodd" d="M104.747 150.532C104.751 150.532 104.755 150.532 104.759 150.532C104.96 150.526 105.118 150.358 105.112 150.157C103.889 109.52 90.091 68.0588 89.951 67.6448C89.887 67.4538 89.681 67.3508 89.489 67.4148C89.299 67.4798 89.196 67.6858 89.26 67.8768C89.398 68.2898 103.164 109.653 104.384 150.178C104.39 150.376 104.551 150.532 104.747 150.532Z" fill="white"/>
<path fill-rule="evenodd" clip-rule="evenodd" d="M95.4685 112.893C82.2635 135.998 52.4285 143.287 52.4285 143.287C52.4285 143.287 50.9345 139.49 52.5105 133.974C52.5105 133.974 80.1135 128.842 91.6725 105.755C101.076 86.9748 96.6055 68.2228 96.6055 68.2228C96.6055 68.2228 100.666 68.2228 102.729 70.2828C102.729 70.2828 105.351 95.6018 95.4685 112.893Z" fill="#121032"/>
<path fill-rule="evenodd" clip-rule="evenodd" d="M79.7519 133.788C79.9239 133.779 80.0959 133.767 80.2679 133.754C81.1199 133.685 81.9709 133.565 82.8059 133.393C83.2589 133.304 83.7029 133.199 84.1479 133.079C84.8189 132.902 85.4829 132.691 86.1379 132.45C86.6089 132.282 87.0749 132.092 87.5359 131.891C93.9749 129.079 99.3529 123.461 101.912 116.91C102.097 116.437 102.269 115.96 102.421 115.475C102.7 114.615 102.926 113.742 103.099 112.857C103.19 112.414 103.263 111.97 103.322 111.52C103.431 110.723 103.495 109.921 103.513 109.116C103.515 108.943 103.518 108.771 103.517 108.599C103.481 100.383 91.6429 95.4737 91.6429 95.4737L88.4709 101.023L87.7439 102.294L82.0869 112.188L72.7219 118.291L71.5109 119.078L65.9579 122.698C65.9579 122.698 71.5479 134.23 79.7519 133.788Z" fill="#121032"/>
<path fill-rule="evenodd" clip-rule="evenodd" d="M82.8056 133.393C83.2586 133.304 83.7026 133.199 84.1476 133.079C81.8776 126.899 76.6606 121.613 72.7216 118.291L71.5106 119.078C75.3216 122.264 80.5446 127.445 82.8056 133.393Z" fill="#2D4A94"/>
<path fill-rule="evenodd" clip-rule="evenodd" d="M92.579 107.342C96.192 110.539 99.736 112.388 103.099 112.857C103.189 112.414 103.263 111.969 103.322 111.52C97.272 110.684 91.691 104.995 88.471 101.023L87.744 102.294C89.045 103.871 90.687 105.669 92.579 107.342Z" fill="#2D4A94"/>
<path fill-rule="evenodd" clip-rule="evenodd" d="M91.6406 95.4732C91.6406 95.4732 101.099 100.429 95.6616 108.687C90.2246 116.945 80.8216 127.075 75.0536 127.671C69.2856 128.266 65.9026 122.755 65.9026 122.755L91.6406 95.4732Z" fill="#2D4A94"/>
<path fill-rule="evenodd" clip-rule="evenodd" d="M86.1376 132.45C86.6096 132.282 87.0746 132.092 87.5356 131.891C87.6526 128.977 88.4966 125.286 91.3696 122.021C94.4406 118.526 98.6196 117.292 101.912 116.909C102.097 116.437 102.269 115.96 102.421 115.475C98.8056 115.783 93.9446 117.042 90.3546 121.13C86.9896 124.957 86.1576 129.229 86.1376 132.45Z" fill="#2D4A94"/>
<mask id="mask2_1_527" style="mask-type:luminance" maskUnits="userSpaceOnUse" x="25" y="75" width="48" height="95">
<path fill-rule="evenodd" clip-rule="evenodd" d="M25 75.1903H72.5448V169.605H25V75.1903Z" fill="white"/>
</mask>
<g mask="url(#mask2_1_527)">
<path fill-rule="evenodd" clip-rule="evenodd" d="M72.5448 168.878C72.5448 168.878 52.0868 172.367 38.0098 164.055C30.0178 159.334 24.0828 150.81 25.1168 135.683C25.1328 135.454 25.1488 135.223 25.1688 134.992C28.4838 94.1565 49.5598 75.6815 49.5598 75.6815C57.4528 73.6315 66.2298 75.7375 54.0558 127.716C50.4828 148.804 70.8198 150.531 70.8198 150.531L72.5448 168.878Z" fill="#FEFEFE"/>
</g>
<path fill-rule="evenodd" clip-rule="evenodd" d="M53.6415 132.535C53.5755 132.535 53.5085 132.525 53.4435 132.503C53.1065 132.394 52.9215 132.032 53.0315 131.695C53.1135 131.443 61.2325 106.297 61.3725 93.0097C61.3765 92.6557 61.6605 92.3797 62.0205 92.3747C62.3745 92.3787 62.6595 92.6687 62.6555 93.0227C62.5135 106.506 54.3335 131.837 54.2505 132.092C54.1625 132.363 53.9125 132.535 53.6415 132.535Z" fill="#ABC0FE"/>
<path fill-rule="evenodd" clip-rule="evenodd" d="M60.9745 103.581C60.8605 103.581 60.7445 103.55 60.6385 103.485C60.3365 103.299 60.2435 102.904 60.4295 102.602L64.1765 96.5276C64.3625 96.2266 64.7565 96.1326 65.0595 96.3186C65.3605 96.5046 65.4535 96.8996 65.2685 97.2016L61.5215 103.276C61.4005 103.473 61.1895 103.581 60.9745 103.581Z" fill="#ABC0FE"/>
<path fill-rule="evenodd" clip-rule="evenodd" d="M68.2079 170.247C67.9589 170.247 67.7219 170.101 67.6169 169.857C65.2659 164.345 65.8019 148.78 65.8259 148.12C65.8389 147.767 66.1379 147.49 66.4899 147.502C66.8439 147.516 67.1199 147.813 67.1069 148.167C67.1019 148.326 66.5579 164.104 68.7979 169.354C68.9369 169.68 68.7849 170.057 68.4589 170.196C68.3769 170.23 68.2919 170.247 68.2079 170.247Z" fill="#ABC0FE"/>
<path fill-rule="evenodd" clip-rule="evenodd" d="M66.7597 148.789C66.4967 148.789 66.2287 148.781 65.9507 148.763C63.2027 148.587 59.2087 147.382 55.7877 142.647C55.5807 142.36 55.6457 141.959 55.9327 141.751C56.2197 141.544 56.6207 141.609 56.8277 141.896C62.7927 150.155 70.5857 146.841 70.6637 146.807C70.9877 146.664 71.3657 146.81 71.5097 147.135C71.6527 147.459 71.5057 147.837 71.1817 147.98C71.0997 148.017 69.3177 148.789 66.7597 148.789Z" fill="#ABC0FE"/>
<mask id="mask3_1_527" style="mask-type:luminance" maskUnits="userSpaceOnUse" x="25" y="135" width="14" height="30">
<path fill-rule="evenodd" clip-rule="evenodd" d="M25 135.683H38.238V164.055H25V135.683Z" fill="white"/>
</mask>
<g mask="url(#mask3_1_527)">
<path fill-rule="evenodd" clip-rule="evenodd" d="M38.0097 164.055C30.0177 159.334 24.0827 150.81 25.1167 135.683C30.7417 141.905 39.7907 153.764 38.0097 164.055Z" fill="#5C84CD"/>
</g>
<path fill-rule="evenodd" clip-rule="evenodd" d="M87.7431 62.2515V66.7095C87.2221 67.1305 86.6941 67.4975 86.1651 67.8145C78.4251 72.4625 70.0751 66.7095 70.0751 66.7095V51.2535L85.6361 60.9395L87.7431 62.2515Z" fill="#ADC3FF"/>
<path fill-rule="evenodd" clip-rule="evenodd" d="M87.7431 62.1231V66.7091C87.2221 67.1301 86.6941 67.4971 86.1651 67.8141C79.5741 65.2061 74.7771 58.2901 74.7771 58.2901L85.6361 60.9401L87.7431 62.1231Z" fill="#121032"/>
<path fill-rule="evenodd" clip-rule="evenodd" d="M89.9892 25.2882C89.9892 25.2882 98.6272 27.4672 95.4442 34.5212C95.4442 34.5212 89.7402 28.2332 89.9892 25.2882Z" fill="#121032"/>
<path fill-rule="evenodd" clip-rule="evenodd" d="M92.6806 42.4976C92.6806 42.4976 95.2126 39.5066 96.6436 42.4976C98.0746 45.4886 96.9736 51.5426 93.1206 50.5516L92.6806 42.4976Z" fill="#5C84CD"/>
<path fill-rule="evenodd" clip-rule="evenodd" d="M96.0136 52.9859C96.0136 52.9859 96.0276 62.2019 86.4416 62.1809C76.9146 62.1629 70.4226 54.6819 70.0846 54.3359C70.0786 54.3299 70.0746 54.3269 70.0746 54.3269L69.9706 52.3899L69.4286 42.3369L69.1386 36.9629C69.1386 36.9629 67.9216 27.2879 77.1176 25.5239C83.8346 24.2339 90.1346 25.3489 93.3146 28.8539C94.4846 30.1469 95.2316 31.7659 95.4186 33.7079L95.7166 43.3599L95.7886 45.7249L96.0136 52.9859Z" fill="#ADC3FF"/>
<path fill-rule="evenodd" clip-rule="evenodd" d="M82.6542 47.0147C82.6542 47.0147 88.4002 49.4077 92.8322 48.7077C92.8322 48.7077 91.6342 54.2907 86.4962 52.8437C83.0962 51.8867 82.6542 47.0147 82.6542 47.0147Z" fill="white"/>
<path fill-rule="evenodd" clip-rule="evenodd" d="M65.9716 37.8155C66.1706 39.8215 66.8816 40.9075 67.3556 41.6475C70.0756 42.2375 71.3106 43.7225 71.8266 45.1115L74.2196 45.4275C74.2196 45.4275 74.5346 41.5215 73.7166 38.5605C73.0856 36.2815 75.2226 35.5695 75.7186 33.5755C75.8656 32.9825 75.9796 32.7225 75.7186 31.8265C75.7186 31.8265 79.1346 29.2015 83.2136 30.4605C87.2936 31.7225 91.0266 32.1575 92.8936 29.6795C93.0786 29.4335 93.2436 29.1765 93.3136 28.8545C90.1356 25.3495 83.8346 24.2325 77.1176 25.5235C67.9216 27.2875 65.8346 31.7475 65.8346 31.7475C65.1256 34.0165 65.7776 35.8615 65.9716 37.8155Z" fill="#121032"/>
<path fill-rule="evenodd" clip-rule="evenodd" d="M73.6337 37.376C71.1457 37.946 68.6847 38.613 66.3357 39.623C66.6387 40.578 67.0467 41.228 67.3557 41.647C70.0747 42.238 71.3107 43.722 71.8267 45.112L74.2197 45.427C74.2197 45.427 74.5347 41.522 73.7167 38.56C73.5927 38.112 73.5767 37.725 73.6337 37.376Z" fill="#5C84CD"/>
<mask id="mask4_1_527" style="mask-type:luminance" maskUnits="userSpaceOnUse" x="64" y="18" width="30" height="14">
<path fill-rule="evenodd" clip-rule="evenodd" d="M64.3555 18H93.8754V31.5313H64.3555V18Z" fill="white"/>
</mask>
<g mask="url(#mask4_1_527)">
<path fill-rule="evenodd" clip-rule="evenodd" d="M64.3984 31.5313C64.3984 31.5313 79.3294 25.6263 89.9424 25.2673C90.2194 25.2583 90.4944 25.2523 90.7654 25.2523C91.8734 25.2443 92.9184 25.3093 93.8754 25.4583C93.8754 25.4583 91.8494 20.0303 84.5914 18.4363C83.7644 18.2543 82.8704 18.1223 81.9024 18.0523C80.6284 17.9633 79.2284 17.9833 77.6914 18.1453C77.6404 18.1493 77.5904 18.1543 77.5394 18.1603C77.1374 18.2043 76.7474 18.2573 76.3704 18.3213C75.2024 18.5103 74.1434 18.7803 73.1824 19.1173C72.9304 19.2033 72.6864 19.2963 72.4484 19.3913C70.6684 20.1103 69.2524 21.0563 68.1294 22.1083C67.7614 22.4523 67.4244 22.8073 67.1174 23.1693C63.7944 27.0733 64.3984 31.5313 64.3984 31.5313Z" fill="#ADC3FF"/>
</g>
<path fill-rule="evenodd" clip-rule="evenodd" d="M81.9023 18.0523C84.3073 18.9203 87.9293 20.9023 89.9423 25.2673C90.0543 25.5083 90.1613 25.7573 90.2623 26.0133L90.9673 25.7353C90.9023 25.5723 90.8353 25.4093 90.7653 25.2523C89.2133 21.6763 86.6593 19.5993 84.5913 18.4363C83.7643 18.2543 82.8703 18.1223 81.9023 18.0523Z" fill="#121032"/>
<path fill-rule="evenodd" clip-rule="evenodd" d="M76.37 18.3209C80.075 19.9439 81.869 24.2069 81.891 24.2569L82.591 23.9689C82.511 23.7719 80.962 20.0989 77.691 18.1449C77.641 18.1499 77.591 18.1539 77.539 18.1599C77.138 18.2039 76.747 18.2579 76.37 18.3209Z" fill="#121032"/>
<path fill-rule="evenodd" clip-rule="evenodd" d="M72.4482 19.3917C72.7102 21.2767 73.6342 25.1717 76.8402 27.1637L77.2402 26.5217C74.2302 24.6517 73.4032 20.8007 73.1822 19.1177C72.9302 19.2037 72.6862 19.2957 72.4482 19.3917Z" fill="#121032"/>
<path fill-rule="evenodd" clip-rule="evenodd" d="M67.9599 30.1807L68.6149 29.7987C67.2269 27.4267 67.5969 24.2827 68.1299 22.1077C67.7619 22.4517 67.4249 22.8067 67.1169 23.1697C66.7379 25.3307 66.6879 28.0097 67.9599 30.1807Z" fill="#121032"/>
<path fill-rule="evenodd" clip-rule="evenodd" d="M94.9394 28.3336C94.9394 28.3336 79.5784 25.3586 65.7544 36.2746C65.7544 36.2746 63.5084 34.4366 64.3984 31.3496C64.3984 31.3496 77.6154 19.4746 93.8754 24.5806C93.8754 24.5806 95.5954 25.9966 94.9394 28.3336Z" fill="#121032"/>
<path fill-rule="evenodd" clip-rule="evenodd" d="M83.2138 44.5455C83.2138 45.2165 81.8308 45.7605 80.1268 45.7605C78.4218 45.7605 77.0398 45.2165 77.0398 44.5455C77.0398 43.8745 78.4218 43.3305 80.1268 43.3305C81.8308 43.3305 83.2138 43.8745 83.2138 44.5455Z" fill="#EC6905"/>
<path fill-rule="evenodd" clip-rule="evenodd" d="M95.789 45.7252C95.552 45.7482 95.302 45.7612 95.046 45.7612C93.343 45.7612 91.96 45.2162 91.96 44.5452C91.96 43.8742 93.343 43.3302 95.046 43.3302C95.276 43.3302 95.501 43.3402 95.717 43.3602L95.789 45.7252Z" fill="#EC6905"/>
<path fill-rule="evenodd" clip-rule="evenodd" d="M83.1132 40.8526C83.1132 41.7736 82.6952 42.5206 82.1792 42.5206C81.6642 42.5206 81.2462 41.7736 81.2462 40.8526C81.2462 39.9306 81.6642 39.1846 82.1792 39.1846C82.6952 39.1846 83.1132 39.9306 83.1132 40.8526Z" fill="#37202B"/>
<path fill-rule="evenodd" clip-rule="evenodd" d="M92.2304 40.8526C92.2304 41.7736 91.8124 42.5206 91.2964 42.5206C90.7814 42.5206 90.3634 41.7736 90.3634 40.8526C90.3634 39.9306 90.7814 39.1846 91.2964 39.1846C91.8124 39.1846 92.2304 39.9306 92.2304 40.8526Z" fill="#37202B"/>
<path fill-rule="evenodd" clip-rule="evenodd" d="M78.4989 36.6231C78.7099 35.6501 79.5199 33.8231 82.6319 33.6851C83.0119 33.6681 83.3529 33.9181 83.4539 34.2851C83.5799 34.7451 83.2879 35.2201 82.8179 35.3041C81.9929 35.4511 80.7959 35.9011 80.1109 37.2481C79.8979 37.6681 79.3589 37.8031 78.9589 37.5551L78.8649 37.4971C78.5689 37.3131 78.4259 36.9631 78.4989 36.6231Z" fill="#37202B"/>
<path fill-rule="evenodd" clip-rule="evenodd" d="M94.4423 36.6231C94.2313 35.6501 93.4213 33.8231 90.3093 33.6851C89.9293 33.6681 89.5883 33.9181 89.4873 34.2851C89.3613 34.7451 89.6533 35.2201 90.1233 35.3041C90.9493 35.4511 92.1453 35.9011 92.8303 37.2481C93.0443 37.6681 93.5823 37.8031 93.9823 37.5551L94.0763 37.4971C94.3723 37.3131 94.5153 36.9631 94.4423 36.6231Z" fill="#37202B"/>
<path fill-rule="evenodd" clip-rule="evenodd" d="M73.0849 50.5963C73.0419 50.6983 71.8279 53.5123 70.0839 54.3363C70.0789 54.3303 70.0749 54.3263 70.0749 54.3263L69.9709 52.3893C69.9709 52.3893 71.4839 52.1313 73.0849 50.5963Z" fill="#37202B"/>
<path fill-rule="evenodd" clip-rule="evenodd" d="M71.3974 44.1959C71.3974 44.1959 67.7124 39.2459 65.0124 43.1359C62.7884 46.3409 66.9944 54.6939 71.3974 51.8319V44.1959Z" fill="#ADC3FF"/>
<path fill-rule="evenodd" clip-rule="evenodd" d="M67.664 50.2598C67.664 50.7288 68.045 51.1088 68.514 51.1088C68.982 51.1088 69.362 50.7288 69.362 50.2598C69.362 49.7908 68.982 49.4108 68.514 49.4108C68.045 49.4108 67.664 49.7908 67.664 50.2598Z" fill="white"/>
<path fill-rule="evenodd" clip-rule="evenodd" d="M70.8935 50.3409C70.9075 50.3409 70.9205 50.3409 70.9355 50.3389C71.1435 50.3159 71.2935 50.1289 71.2705 49.9209C70.8105 45.7119 67.2675 44.2539 67.1175 44.1939C66.9225 44.1159 66.7025 44.2109 66.6245 44.4049C66.5475 44.5999 66.6415 44.8199 66.8355 44.8979C66.9695 44.9509 70.1075 46.2579 70.5165 50.0039C70.5385 50.1969 70.7025 50.3409 70.8935 50.3409Z" fill="#37202B"/>
<path fill-rule="evenodd" clip-rule="evenodd" d="M67.3554 48.0425C67.4394 48.0425 67.5234 48.0155 67.5934 47.9585C67.9234 47.6905 68.9234 47.0345 69.5774 47.2015C69.7804 47.2525 69.9864 47.1305 70.0394 46.9285C70.0904 46.7255 69.9674 46.5185 69.7654 46.4665C68.6264 46.1745 67.2674 47.2465 67.1164 47.3695C66.9534 47.5015 66.9284 47.7405 67.0604 47.9025C67.1354 47.9955 67.2454 48.0425 67.3554 48.0425Z" fill="#37202B"/>
<path fill-rule="evenodd" clip-rule="evenodd" d="M87.5429 45.4918C89.7899 45.4918 90.5479 43.9228 90.5789 43.8558C90.6269 43.7518 90.6259 43.6328 90.5759 43.5298C89.0359 40.3548 87.4759 37.0928 87.4599 37.0598C87.3689 36.8708 87.1429 36.7908 86.9539 36.8818C86.7649 36.9718 86.6859 37.1978 86.7749 37.3868C86.7909 37.4188 88.2939 40.5608 89.8059 43.6788C89.5889 43.9978 88.9389 44.7338 87.5429 44.7338C87.3329 44.7338 87.1629 44.9038 87.1629 45.1128C87.1629 45.3218 87.3329 45.4918 87.5429 45.4918Z" fill="#37202B"/>
<path fill-rule="evenodd" clip-rule="evenodd" d="M69.9833 63.5133C69.9833 63.5133 78.4263 69.5833 80.9493 69.5563C80.9493 69.5563 77.6703 73.3323 72.4843 73.8413C65.6793 74.5103 53.6073 72.5053 53.6073 72.5053C53.6073 72.5053 62.8893 66.7233 69.9833 63.5133Z" fill="#5C84CD"/>
<path fill-rule="evenodd" clip-rule="evenodd" d="M87.7431 63.3614C87.7431 63.3614 86.0511 68.3144 80.9491 69.5564C80.9491 69.5564 82.0911 74.2064 87.2511 73.4764C92.4111 72.7474 97.2201 68.2224 97.2201 68.2224C97.2201 68.2224 91.8161 63.3614 87.7431 63.3614Z" fill="#5C84CD"/>
</g>
</svg>
